<svg width="14" height="10" viewBox="0 0 14 10" fill="none" xmlns="http://www.w3.org/2000/svg">
<path d="M0.5 7.44939C0.499978 7.3342 0.539787 7.22255 0.612679 7.13336C0.685571 7.04416 0.787061 6.98292 0.899948 6.96C1.35166 6.86772 1.75763 6.62224 2.04919 6.26509C2.34075 5.90794 2.5 5.46104 2.5 5C2.5 4.53896 2.34075 4.09206 2.04919 3.73491C1.75763 3.37776 1.35166 3.13228 0.899948 3.04C0.787061 3.01708 0.685571 2.95584 0.612679 2.86664C0.539787 2.77745 0.499978 2.6658 0.5 2.55061V1C0.5 0.867392 0.552678 0.740215 0.646447 0.646447C0.740215 0.552679 0.867392 0.5 1 0.5H13C13.1326 0.5 13.2598 0.552679 13.3536 0.646447C13.4473 0.740215 13.5 0.867392 13.5 1V2.55061C13.5 2.6658 13.4602 2.77745 13.3873 2.86665C13.3144 2.95584 13.2129 3.01708 13.1001 3.04C12.6483 3.13229 12.2424 3.37777 11.9508 3.73492C11.6592 4.09207 11.5 4.53896 11.5 5C11.5 5.46105 11.6592 5.90794 11.9508 6.26509C12.2424 6.62224 12.6483 6.86772 13.1001 6.96001C13.2129 6.98292 13.3144 7.04417 13.3873 7.13336C13.4602 7.22255 13.5 7.3342 13.5 7.44939V9C13.5 9.13261 13.4473 9.25979 13.3536 9.35355C13.2598 9.44732 13.1326 9.5 13 9.5H1C0.867392 9.5 0.740215 9.44732 0.646447 9.35355C0.552678 9.25979 0.5 9.13261 0.5 9V7.44939Z" stroke="#92929D" stroke-linecap="round" stroke-linejoin="round"/>
</svg>
